<?xml version="1.0" encoding="UTF-8" standalone="no"?><!DOCTYPE svg PUBLIC "-//W3C//DTD SVG 1.1//EN" "http://www.w3.org/Graphics/SVG/1.1/DTD/svg11.dtd"><svg width="100%" height="100%" viewBox="0 0 8607 2947" version="1.1" xmlns="http://www.w3.org/2000/svg" xmlns:xlink="http://www.w3.org/1999/xlink" xml:space="preserve" xmlns:serif="http://www.serif.com/" style="fill-rule:evenodd;clip-rule:evenodd;stroke-linejoin:round;stroke-miterlimit:2;"><rect id="OVERVIEW" x="-12236.5" y="-17611.9" width="43754" height="30001.3" style="fill:none;"/><g id="Inertia-Logo_Full-Mark" serif:id="Inertia Logo_Full Mark"></g><g id="Inertia-Logo_Primary-Mark" serif:id="Inertia Logo_Primary Mark"></g><g id="Inertia-Logo_Alternate-1" serif:id="Inertia Logo_Alternate 1"><g><g><g><g><rect x="1067.51" y="825.381" width="256.227" height="1125.26" style="fill:#56938e;"/><g><rect x="1475" y="825.381" width="265.903" height="1125.26" style="fill:#56938e;"/><rect x="2334.43" y="825.381" width="262.586" height="1125.26" style="fill:#56938e;"/><path d="M1741.71,825.381l-179.577,140.879l772.247,984.379l179.578,-140.879l-772.248,-984.379Z" style="fill:#56938e;"/></g><g><path d="M2738.2,825.381l0,194.212l968.557,0l0,-194.212l-968.557,0Z" style="fill:#56938e;"/><path d="M2738.2,1268.77l0,191.576l918.183,-0l0,-191.576l-918.183,0Z" style="fill:#56938e;"/><path d="M2738.2,1739.36l0,189.99l977.54,0l0,-189.99l-977.54,0Z" style="fill:#56938e;"/></g><path d="M3842.6,825.381l799.774,0c-0,0 317.147,11.156 317.147,282.202c0,223.886 -181.181,291.488 -181.181,291.488c223.729,117.668 157.81,521.701 157.81,521.701l-248,-0c-0,-431.52 -111.434,-423.51 -111.434,-423.51l-485.744,0l-0,423.51l-248.372,-0l0,-1095.39Zm248.372,188.366l-0,300.281l462.083,-0c-0,-0 154.747,-5.777 154.747,-167.242c-0,-134.927 -164.498,-136.335 -164.498,-136.335l-452.332,3.296Z" style="fill:#56938e;"/><g><rect x="5464.91" y="829.909" width="248.372" height="1095.39" style="fill:#56938e;"/><path d="M6136.79,1073.75l0,-248.372l-1259.39,0c109.052,42.677 183.596,147.627 185.149,248.372l1074.25,-0Z" style="fill:#56938e;"/></g><path d="M7228.12,825.381l-115.239,0l-32.169,233.707l470.466,1253.93l272.818,4.311l-595.876,-1491.95Z" style="fill:#56938e;"/><rect x="6267.06" y="825.381" width="252.2" height="1099.92" style="fill:#56938e;"/><path d="M7282.03,991.44l-169.477,-166.059l-448.831,1099.92l251.851,-0l366.457,-933.86Z" style="fill:#56938e;"/></g><g><path d="M2739.8,2103.22l1.182,223.641l5079.18,-0l-97.817,-223.641l-4982.54,-0Z" style="fill:#56938e;"/><path d="M2739.8,2112.62c-0,-21.116 -17.143,-38.26 -38.259,-38.26l-971.883,0c-21.115,0 -38.259,17.144 -38.259,38.26l0,210.444c0,21.116 17.144,38.259 38.259,38.259l971.883,0c21.116,0 38.259,-17.143 38.259,-38.259l-0,-210.444Z" style="fill:#56938e;"/><path d="M2719.18,2078.67c0,-0 -8.516,125.898 2.727,174.145c0.776,3.329 17.886,67.199 17.886,67.199l15.286,-114.907l12.537,121.747l19.964,-197.155c0,-0 -10.079,-30.187 -68.4,-51.029Z" style="fill:#56938e;"/></g></g><path d="M1675.72,2105.5l-480.936,5.68l-36.78,14.619l-13.717,65.87l495.236,21.298c0,-0 6.606,-0 0,-0l-500.071,0.372l14.273,75.73l35.716,26.792l486.279,10.993c-16.615,-75.915 -16.877,-154.135 0,-221.354Z" style="fill:#56938e;"/><path d="M1138.36,2275.36l-9.175,-51.527l10.259,-82.587c-0,0 -6.433,10.036 -16.915,12.987c-8.895,2.504 -21.46,0.243 -22.229,6.09l-6.154,8.284l-7.495,-22.574c0,-0 -31.471,1.289 -32.192,8.105l-15.809,2.012l-5.21,57.19l-9.695,-56.459c-0,0 -109.973,51.128 -116.013,56.459c-6.04,5.331 28.069,16.972 28.069,16.972l88.252,34.601c0,-0 48.95,23.149 63.668,17.871c-0.756,-14.901 -0.372,-25.501 -0.372,-25.501c0,0 5.34,3.791 12.555,9.515l38.456,8.562Z" style="fill:#56938e;"/><path d="M7434.86,2003.03l117.187,323.825l278.441,-0l-124.222,-303.721l-271.406,-20.104Z" style="fill:#56938e;"/></g></g></g><g id="Inertia-Logo_Alternate-2" serif:id="Inertia Logo_Alternate 2"></g><g id="Inertia-Logo_Emblem" serif:id="Inertia Logo_Emblem"></g><g id="Inertia-Logo_Simplified-Alternate" serif:id="Inertia Logo_Simplified-Alternate"></g><g id="Inertia-Logo_Linear" serif:id="Inertia Logo_Linear"></g><g id="Inertia-Logo_Simplified" serif:id="Inertia Logo_Simplified"></g></svg>