<?xml version="1.0" encoding="UTF-8" standalone="no"?><!DOCTYPE svg PUBLIC "-//W3C//DTD SVG 1.1//EN" "http://www.w3.org/Graphics/SVG/1.1/DTD/svg11.dtd"><svg width="100%" height="100%" viewBox="0 0 8607 2947" version="1.1" xmlns="http://www.w3.org/2000/svg" xmlns:xlink="http://www.w3.org/1999/xlink" xml:space="preserve" xmlns:serif="http://www.serif.com/" style="fill-rule:evenodd;clip-rule:evenodd;stroke-linejoin:round;stroke-miterlimit:2;"><rect id="OVERVIEW" x="-12236.5" y="-17611.9" width="43754" height="30001.3" style="fill:none;"/><g id="Inertia-Logo_Primary-Mark" serif:id="Inertia Logo_Primary Mark"></g><g id="Layer-1" serif:id="Layer 1"></g><g id="Inertia-Logo_Alternate-1" serif:id="Inertia Logo_Alternate 1"><g><g><g><g><rect x="1067.51" y="825.381" width="256.227" height="1125.26" style="fill:#56938e;"/><g><rect x="1475" y="825.381" width="265.903" height="1125.26" style="fill:#56938e;"/><rect x="2334.43" y="825.381" width="262.586" height="1125.26" style="fill:#56938e;"/><path d="M1741.71,825.381l-179.577,140.879l772.247,984.379l179.578,-140.879l-772.248,-984.379Z" style="fill:#56938e;"/></g><g><path d="M2738.2,825.381l0,194.212l968.557,0l0,-194.212l-968.557,0Z" style="fill:#56938e;"/><path d="M2738.2,1268.77l0,191.576l918.183,-0l0,-191.576l-918.183,0Z" style="fill:#56938e;"/><path d="M2738.2,1739.36l0,189.99l977.54,0l0,-189.99l-977.54,0Z" style="fill:#56938e;"/></g><path d="M3842.6,825.381l799.774,0c-0,0 317.147,11.156 317.147,282.202c0,223.886 -181.181,291.488 -181.181,291.488c223.729,117.668 157.81,521.701 157.81,521.701l-248,-0c-0,-431.52 -111.434,-423.51 -111.434,-423.51l-485.744,0l-0,423.51l-248.372,-0l0,-1095.39Zm248.372,188.366l-0,300.281l462.083,-0c-0,-0 154.747,-5.777 154.747,-167.242c-0,-134.927 -164.498,-136.335 -164.498,-136.335l-452.332,3.296Z" style="fill:#56938e;"/><g><rect x="5464.91" y="829.909" width="248.372" height="1095.39" style="fill:#56938e;"/><path d="M6136.79,1073.75l0,-248.372l-1259.39,0c109.052,42.677 183.596,147.627 185.149,248.372l1074.25,-0Z" style="fill:#56938e;"/></g><path d="M7228.12,825.381l-115.239,0l-32.169,233.707l470.466,1253.93l272.818,4.311l-595.876,-1491.95Z" style="fill:#56938e;"/><rect x="6267.06" y="825.381" width="252.2" height="1099.92" style="fill:#56938e;"/><path d="M7282.03,991.44l-169.477,-166.059l-448.831,1099.92l251.851,-0l366.457,-933.86Z" style="fill:#56938e;"/></g><g><path d="M2739.8,2103.22l1.182,223.641l5079.18,-0l-97.817,-223.641l-4982.54,-0Z" style="fill:#56938e;"/><path d="M2739.8,2112.62c-0,-21.116 -17.143,-38.26 -38.259,-38.26l-971.883,0c-21.115,0 -38.259,17.144 -38.259,38.26l0,210.444c0,21.116 17.144,38.259 38.259,38.259l971.883,0c21.116,0 38.259,-17.143 38.259,-38.259l-0,-210.444Z" style="fill:#56938e;"/><path d="M2719.18,2078.67c0,-0 -8.516,125.898 2.727,174.145c0.776,3.329 17.886,67.199 17.886,67.199l15.286,-114.907l12.537,121.747l19.964,-197.155c0,-0 -10.079,-30.187 -68.4,-51.029Z" style="fill:#56938e;"/></g></g><path d="M1675.72,2105.5l-480.936,5.68l-36.78,14.619l-13.717,65.87l495.236,21.298c0,-0 6.606,-0 0,-0l-500.071,0.372l14.273,75.73l35.716,26.792l486.279,10.993c-16.615,-75.915 -16.877,-154.135 0,-221.354Z" style="fill:#56938e;"/><path d="M1138.36,2275.36l-9.175,-51.527l10.259,-82.587c-0,0 -6.433,10.036 -16.915,12.987c-8.895,2.504 -21.46,0.243 -22.229,6.09l-6.154,8.284l-7.495,-22.574c0,-0 -31.471,1.289 -32.192,8.105l-15.809,2.012l-5.21,57.19l-9.695,-56.459c-0,0 -109.973,51.128 -116.013,56.459c-6.04,5.331 28.069,16.972 28.069,16.972l88.252,34.601c0,-0 48.95,23.149 63.668,17.871c-0.756,-14.901 -0.372,-25.501 -0.372,-25.501c0,0 5.34,3.791 12.555,9.515l38.456,8.562Z" style="fill:#56938e;"/><path d="M7434.86,2003.03l117.187,323.825l278.441,-0l-124.222,-303.721l-271.406,-20.104Z" style="fill:#56938e;"/></g></g></g><g id="Inertia-Logo_Alternate-2" serif:id="Inertia Logo_Alternate 2"></g><g id="Inertia-Logo_Emblem" serif:id="Inertia Logo_Emblem"></g><g id="Inertia-Logo_Simplified-Alternate" serif:id="Inertia Logo_Simplified-Alternate"></g><g id="Inertia-Logo_Linear" serif:id="Inertia Logo_Linear"></g><g id="Inertia-Logo_Simplified" serif:id="Inertia Logo_Simplified"></g><g><path d="M4870.74,2943.56c-40.763,-0 -70.152,-10.149 -88.166,-30.446c-18.013,-20.297 -27.02,-52.604 -27.02,-96.919l-0,-43.639l88.293,-0l-0,55.817c-0,10.318 1.564,18.394 4.693,24.23c3.13,5.835 8.584,8.753 16.365,8.753c8.119,-0 13.743,-2.368 16.872,-7.104c3.129,-4.736 4.694,-12.517 4.694,-23.342c-0,-13.7 -1.353,-25.16 -4.06,-34.378c-2.706,-9.219 -7.4,-18.014 -14.081,-26.387c-6.681,-8.372 -15.942,-18.14 -27.782,-29.304l-40.087,-38.057c-29.938,-28.247 -44.907,-60.553 -44.907,-96.919c-0,-38.057 8.838,-67.065 26.513,-87.024c17.676,-19.959 43.258,-29.939 76.749,-29.939c40.933,0 69.983,10.91 87.151,32.73c17.168,21.819 25.752,54.971 25.752,99.456l-90.83,-0l0,-30.7c0,-6.089 -1.734,-10.825 -5.201,-14.208c-3.468,-3.382 -8.161,-5.074 -14.081,-5.074c-7.104,0 -12.305,1.988 -15.604,5.962c-3.298,3.975 -4.947,9.092 -4.947,15.35c-0,6.258 1.691,13.024 5.074,20.297c3.383,7.273 10.064,15.646 20.044,25.118l51.504,49.475c10.317,9.81 19.789,20.17 28.416,31.08c8.626,10.909 15.561,23.595 20.804,38.057c5.244,14.462 7.866,32.095 7.866,52.899c-0,41.948 -7.739,74.804 -23.215,98.569c-15.477,23.764 -42.413,35.647 -80.809,35.647Z" style="fill:#d59154;fill-rule:nonzero;"/><path d="M5162.27,2939.5l0,-360.782l-53.026,-0l-0,-85.756l195.36,-0l0,85.756l-53.026,-0l-0,360.782l-89.308,0Z" style="fill:#d59154;fill-rule:nonzero;"/><path d="M5430.2,2939.5l43.132,-446.538l151.467,-0l42.371,446.538l-84.487,0l-6.343,-72.055l-53.788,0l-5.581,72.055l-86.771,0Zm98.695,-143.349l40.595,0l-19.536,-227.075l-4.06,0l-16.999,227.075Z" style="fill:#d59154;fill-rule:nonzero;"/><path d="M5855.94,2939.5l-0,-146.901l-71.294,-299.637l88.547,-0l24.864,151.214l24.864,-151.214l88.292,-0l-71.04,299.637l0,146.901l-84.233,0Z" style="fill:#d59154;fill-rule:nonzero;"/><rect x="6390.54" y="2492.97" width="86.263" height="446.538" style="fill:#d59154;fill-rule:nonzero;"/><path d="M6631.83,2939.5l-0,-446.538l91.844,-0l41.102,213.882l0,-213.882l86.263,-0l0,446.538l-87.278,0l-44.654,-223.269l0,223.269l-87.277,0Z" style="fill:#d59154;fill-rule:nonzero;"/><path d="M7010.13,2939.5l-0,-446.538l122.798,-0c32.137,-0 56.324,8.922 72.562,26.767c16.238,17.844 24.357,43.935 24.357,78.271l-0,209.061c-0,42.286 -7.4,74.93 -22.2,97.934c-14.8,23.003 -40.722,34.505 -77.764,34.505l-119.753,0Zm89.815,-78.905l15.476,-0c16.407,-0 24.611,-7.95 24.611,-23.849l-0,-230.374c-0,-14.884 -1.988,-24.483 -5.963,-28.796c-3.974,-4.313 -12.051,-6.47 -24.229,-6.47l-9.895,0l-0,289.489Z" style="fill:#d59154;fill-rule:nonzero;"/><rect x="7381.84" y="2492.97" width="86.263" height="446.538" style="fill:#d59154;fill-rule:nonzero;"/><path d="M7623.13,2939.5l0,-446.538l178.615,-0l0,86.263l-87.785,-0l0,87.024l84.233,0l0,83.98l-84.233,-0l0,102.247l93.621,-0l-0,87.024l-184.451,0Z" style="fill:#d59154;fill-rule:nonzero;"/></g></svg>