<?xml version="1.0" encoding="UTF-8" standalone="no"?><!DOCTYPE svg PUBLIC "-//W3C//DTD SVG 1.1//EN" "http://www.w3.org/Graphics/SVG/1.1/DTD/svg11.dtd"><svg width="100%" height="100%" viewBox="0 0 15604 11488" version="1.1" xmlns="http://www.w3.org/2000/svg" xmlns:xlink="http://www.w3.org/1999/xlink" xml:space="preserve" xmlns:serif="http://www.serif.com/" style="fill-rule:evenodd;clip-rule:evenodd;stroke-linejoin:round;stroke-miterlimit:2;"><rect id="OVERVIEW" x="-664.61" y="-1880.68" width="43754" height="30001.3" style="fill:none;"/><g id="Inertia-Logo_Primary-Mark" serif:id="Inertia Logo_Primary Mark"></g><g id="Layer-1" serif:id="Layer 1"><path d="M6677.07,8291.36c-11.157,-8.724 -22.194,-17.572 -33.155,-26.539l-118.147,0.043l31.28,37.213l120.022,-10.717Z" style="fill:#cb945e;fill-rule:nonzero;"/><path d="M6697.47,8468.08l138.27,143.613c60.61,-28.614 113.406,-67.383 159.23,-113.688c-66.143,-35.067 -130.258,-73.559 -192.065,-115.161l-105.435,85.236Z" style="fill:#cb945e;fill-rule:nonzero;"/><path d="M7166.12,8579.34c-9.406,-3.907 -18.731,-7.928 -28.013,-12.034c-36.34,88.145 -81.486,199.438 -110.415,276.861c0.196,0.038 0.358,0.119 0.515,0.2c14.267,-32.835 64.273,-143.89 137.913,-265.027" style="fill:#cb945e;fill-rule:nonzero;"/><path d="M7128.38,8374l35.783,14.743c12.95,-26.419 32.358,-88.259 43.233,-124.681l-23.228,-0c-16.218,44.869 -55.788,109.938 -55.788,109.938" style="fill:#cb945e;fill-rule:nonzero;"/><path d="M7346.15,8451.31c32.635,-54.194 90.892,-144.367 118.748,-187.242l-17.057,-0c-53.04,53.674 -148.392,172.217 -148.392,172.217l46.701,15.025Z" style="fill:#cb945e;fill-rule:nonzero;"/><path d="M7206.85,8405.6c20.801,7.57 41.759,14.906 62.841,21.874c48.852,-62.956 103.003,-120.656 160.584,-162.615l-168.635,0.038c-16.26,56.264 -34.548,98.104 -54.79,140.703" style="fill:#cb945e;fill-rule:nonzero;"/><path d="M6906.95,8270.76l38.931,-3.468l-18.049,14.586c55.625,29.367 112.685,56.464 171.101,81.21c19.007,-31.399 36.221,-64.354 51.723,-98.386l-254.786,0.081c3.668,1.994 7.374,3.983 11.08,5.977" style="fill:#cb945e;fill-rule:nonzero;"/><path d="M7246.89,8611.54c-10.88,-4.064 -21.679,-8.209 -32.435,-12.512l-16.379,-5.699c-53.913,94.598 -95.992,179.634 -136.239,263.195c9.206,3.268 18.449,6.492 27.693,9.64l157.36,-254.624Z" style="fill:#cb945e;fill-rule:nonzero;"/><path d="M9045.33,8294.91c19.127,-9.721 38.096,-19.766 56.903,-30.045l-62.484,-0c1.636,10.04 3.468,20.08 5.581,30.045" style="fill:#cb945e;fill-rule:nonzero;"/><path d="M7731.64,5258.35c0,0 19.136,14.057 14.133,60.204c-0,0 64.998,-15.087 82.188,-15.836c-0,0 12.411,-319.65 10.67,-361.052c-0,0 0.043,-0.954 0.114,-2.7c-127.257,10.976 -250.551,34.891 -368.436,70.312c75.286,87.72 161.815,171.649 261.331,249.072" style="fill:#cb945e;fill-rule:nonzero;"/><path d="M7832.21,4760.32c-3.177,-21.144 -7.622,-39.98 -13.809,-53.574c0,0 -68.694,-112.657 -125.473,-142.487c-0,0 -72.753,-48.938 -78.262,-72.491c-142.249,23.73 -279.871,60.385 -411.498,108.67c45.304,92.91 99.326,186.03 163.785,276.68c145.759,-60.324 301.997,-100.437 465.257,-116.798" style="fill:#cb945e;fill-rule:nonzero;"/><path d="M7272.9,4082.66c-78.1,20.854 -154.784,44.993 -229.898,72.243c22.446,90.74 51.742,186.741 89.9,284.76c135.667,-59.961 278.712,-106.271 427.424,-137.188c6.883,-58.95 35.306,-128.426 105.736,-203.607c0,-0 3.334,-16.499 2.485,-26.668c0,0 -142.101,38.401 -363.074,161.738c-0,0 -34.433,16.971 -52.597,-7.636c-18.163,-24.603 -4.264,-64.769 -4.264,-64.769l24.288,-78.873Z" style="fill:#cb945e;fill-rule:nonzero;"/><path d="M9002.42,8498.53c-82.484,43.753 -168.196,82.245 -256.656,115.08c275.067,46.663 471.672,58.215 471.672,58.215c-81.486,-33.469 -154.764,-100.652 -215.016,-173.295" style="fill:#cb945e;fill-rule:nonzero;"/><path d="M9101.4,8442.62c40.128,67.263 101.133,126.036 192.383,169.074l138.271,-143.613l-166.803,-134.326c-52.835,38.692 -107.468,75.033 -163.851,108.865" style="fill:#cb945e;fill-rule:nonzero;"/><path d="M9002.89,8264.07l-92.924,-0c18.049,31.757 45.503,73.716 45.503,73.716l56.584,-28.809c-4.14,-7.174 -7.369,-29.487 -9.163,-44.907" style="fill:#cb945e;fill-rule:nonzero;"/><path d="M7999.13,8544.63c8.448,0 16.895,-0.038 25.304,-0.157c313.083,-3.31 610.702,-68.618 880.074,-183.622c-22.995,-37.457 -41.163,-71.165 -53.717,-96.43l-62.598,0.043c-183.341,177.397 -229.879,133.925 -315.234,164.409c90.654,-37.972 164.132,-88.183 223.106,-164.371l-671.631,0.2l-65.231,0l-432.985,0.12l-127.353,201.351c180.95,48.451 371.183,75.51 567.592,78.219c10.875,0.157 21.755,0.238 32.673,0.238" style="fill:#cb945e;fill-rule:nonzero;"/><path d="M4282.69,4610.3c46.224,-95.457 96.049,-188.839 149.236,-280.023l-563.004,97.57c-63.667,132.528 -121.137,268.581 -172.045,407.791l585.512,-225.223l0.301,-0.115Z" style="fill:#cb945e;fill-rule:nonzero;"/><path d="M4155.36,5058.42l-30.312,2.333c-1.207,2.718 -2.414,5.437 -3.611,8.161l33.923,-10.494Z" style="fill:#cb945e;fill-rule:nonzero;"/><path d="M6093.18,8264.07c253.828,240.639 556.351,433.662 891.947,563.963l111.975,-279.251c-16.819,-7.77 -33.475,-15.783 -50.05,-24.03l-23.071,-10.999c-59.612,74.437 -165.807,125.163 -165.807,125.163c-34.27,17.372 -54.551,-9.005 -54.551,-9.005l-129.624,-134.407c-40.447,-37.376 -2.709,-68.537 -2.709,-68.537l85.909,-75.792c-18.607,-13.188 -36.976,-26.696 -55.106,-40.524l-3.787,-2.747l-129.384,11.672c-26.859,4.025 -39.809,-9.96 -39.809,-9.96l-37.018,-44.907l-0,-0.639l-398.915,-0Z" style="fill:#cb945e;fill-rule:nonzero;"/><path d="M5055.57,3514.11c748.72,-761.917 1790.91,-1234.48 2943.58,-1234.48c1159.14,-0 2206.6,477.935 2956.22,1247.45l603.68,0c-839.855,-1036.62 -2122.97,-1699.83 -3559.8,-1699.83c-1428.95,-0 -2705.9,655.91 -3545.97,1682.78l602.292,4.078Z" style="fill:#cb945e;fill-rule:nonzero;"/><path d="M7999.13,9735.99l-1.712,0c-132.018,-0.081 -262.156,-8.29 -389.871,-24.226l-20.959,227.051c135.443,14.586 273.117,22.074 412.542,22.074l4.107,0c7.093,0 14.142,-0.038 21.197,-0.081c146.756,-0.954 291.485,-10.197 433.7,-27.292l-20.324,-228.009c-135.199,18.969 -273.193,29.286 -413.376,30.364c-8.409,0.081 -16.856,0.119 -25.304,0.119" style="fill:#cb945e;fill-rule:nonzero;"/><path d="M8443.24,10203.6c-137.355,16.813 -277.137,25.9 -418.8,26.815c-4.741,0.081 -9.444,0.081 -14.185,0.081c-3.706,0.039 -7.412,0.039 -11.118,0.039c-140.184,-0 -278.531,-7.928 -414.574,-23.429l168.955,219.041c81.291,4.584 163.178,6.893 245.619,6.893c5.461,-0 10.918,-0 16.379,-0.038c2.991,-0 5.939,-0 8.924,-0.039c86.672,-0.476 172.699,-3.548 258.016,-9.086l160.784,-220.277Z" style="fill:#cb945e;fill-rule:nonzero;"/><path d="M8023.08,10724.9c-7.97,0.038 -15.979,0.081 -23.949,0.081c-5.061,0 -10.079,0 -15.139,-0.043l40.442,52.439l38.612,-52.877c-12.869,0.2 -25.738,0.319 -38.612,0.4l-1.354,0Z" style="fill:#cb945e;fill-rule:nonzero;"/><path d="M8778.39,8701.19l-57.142,-78.658c-218.126,77.981 -452.546,121.615 -696.815,124.443c-8.409,0.12 -16.856,0.158 -25.304,0.158c-9.162,-0 -18.287,-0.038 -27.412,-0.158c-141.223,-1.793 -279.136,-17.214 -412.503,-45.026l-179.315,246.334c80.414,18.092 162.22,32.759 245.223,43.753l71.409,-244.541l-23.115,250.561c100.18,11.552 202.067,17.848 305.313,18.569c6.773,0.038 13.589,0.081 20.4,0.081c8.448,-0 16.895,-0.043 25.304,-0.12c118.586,-1.039 235.34,-9.406 349.781,-24.669l-16.417,-183.936l51.165,179.114c157.078,-22.952 309.777,-58.892 456.815,-106.59l-87.387,-179.315Z" style="fill:#cb945e;fill-rule:nonzero;"/><path d="M7423.26,9683.16c-25.504,-4.703 -50.884,-9.721 -76.15,-15.102l57.299,79.694l18.851,-64.592Z" style="fill:#cb945e;fill-rule:nonzero;"/><path d="M7245.1,8913.5l-0.878,0.678c28.652,7.97 57.462,15.501 86.472,22.594l114.045,-157.56l-199.639,134.288Z" style="fill:#cb945e;fill-rule:nonzero;"/><path d="M7295.78,8629.15l-159.749,252.516c21.278,6.849 42.637,13.465 64.115,19.842l311.566,-210.036c-73.516,-17.057 -145.559,-37.896 -215.932,-62.322" style="fill:#cb945e;fill-rule:nonzero;"/><path d="M9604.51,8264.7l-250.045,0.082c-6.85,5.618 -13.785,11.156 -20.72,16.656l238.727,21.359l32.038,-38.097Z" style="fill:#cb945e;fill-rule:nonzero;"/><path d="M9453.17,8421.5c36.46,30.76 12.311,64.234 12.311,64.234l-116.831,117.351c-38.215,52.358 -64.992,40.047 -64.992,40.047c-134.164,-53.236 -211.43,-182.94 -211.43,-182.94l-20.004,14.624c52.72,89.576 196.848,160.307 196.848,160.307c33.951,58.773 -31.643,71.089 -31.643,71.089l-411.025,-47.779l102.526,207.647c377.279,-129.308 716.262,-336.712 996.114,-602.016l-265.786,0l-27.455,33.47c-22.952,29.21 -47.974,21.516 -47.974,21.516l-249.569,-21.993l138.91,124.443Z" style="fill:#cb945e;fill-rule:nonzero;"/><path d="M8331.36,4007.36l7.021,275.373l0.038,1.517c191.354,30.412 374.255,86.132 545.194,163.607c35.964,-90.11 76.293,-200.673 94.275,-283.677c-0,0 0.085,-0.319 0.233,-0.892c-204.79,-76.335 -421.528,-129.427 -646.761,-155.928" style="fill:#cb945e;fill-rule:nonzero;"/><path d="M7562.72,9205.66c-107.987,-17.93 -213.743,-42.437 -316.865,-73.121l-148.593,204.142l28.409,35.582c32.835,9.005 65.909,17.491 99.183,25.461l79.536,-145.521l-8.529,161.738c64.473,13.947 129.623,26.024 195.494,36.146l71.365,-244.427Z" style="fill:#cb945e;fill-rule:nonzero;"/><path d="M10366.4,4902.88l484.809,289.1c-25.304,-46.858 -51.819,-93.005 -79.464,-138.423l-405.345,-150.677Z" style="fill:#cb945e;fill-rule:nonzero;"/><path d="M7705.98,10423.2c-90.096,-116.554 -171.783,-221.751 -171.783,-221.751l0.038,-0.477c-1205.86,-154.092 -2226.72,-899.84 -2762.31,-1936.91l-488.014,-0c669.317,1212.24 1940.5,2059.68 3422.07,2159.14" style="fill:#cb945e;fill-rule:nonzero;"/><path d="M10034.2,5724.28c-5.628,-12.043 -11.381,-24.025 -17.233,-35.949l-356.364,-228.048l283.463,578.344l619.979,-0.205l-540.811,-346.08c3.716,10.618 7.413,21.245 10.966,31.938" style="fill:#cb945e;fill-rule:nonzero;"/><path d="M11714.4,8264.07l-487.971,-0c-531.171,1028.47 -1539.6,1770.43 -2732.43,1932.97l-162.578,223.344c1464.76,-111.574 2719.52,-954.745 3382.98,-2156.31" style="fill:#cb945e;fill-rule:nonzero;"/><path d="M5295.42,4180.63c-22.518,23.252 -44.741,46.782 -66.629,70.607l286.405,-108.694l-219.776,38.087Z" style="fill:#cb945e;fill-rule:nonzero;"/><path d="M5657.55,4917.26l-452.832,172.718c-26.93,45.642 -52.697,92.014 -77.29,139.063l530.122,-311.781Z" style="fill:#cb945e;fill-rule:nonzero;"/><path d="M6366.03,5461.22l-396.43,251.405c-1.845,3.892 -3.753,7.755 -5.58,11.662c1.154,-3.477 2.394,-6.916 3.563,-10.384l-514.429,326.238l626.261,-0.21l286.615,-578.711Z" style="fill:#cb945e;fill-rule:nonzero;"/><path d="M8110.71,10723.5l-49.887,66.667c-35.11,41.716 -68.341,5.695 -68.341,5.695l-54.032,-68.975c-0.439,-0.678 -0.997,-1.436 -1.636,-2.309c-1659.77,-24.588 -3082.09,-1029.07 -3714.43,-2460.51l-489.564,0c666.885,1704.6 2326.62,2913.3 4266.44,2913.3c1939.82,0 3599.55,-1208.7 4266.44,-2913.3l-489.808,0c-626.084,1417.26 -2026.49,2415.96 -3665.18,2459.43" style="fill:#cb945e;fill-rule:nonzero;"/><path d="M5104.15,4213.78l-545.017,94.451c-62.408,85.765 -121.553,173.962 -177.245,264.421l637.169,-241.818c27.603,-39.603 55.973,-78.624 85.093,-117.054" style="fill:#cb945e;fill-rule:nonzero;"/><path d="M10699.2,4176.78l-229.698,-38.163l298.759,111.212c-22.68,-24.66 -45.708,-49.005 -69.061,-73.049" style="fill:#cb945e;fill-rule:nonzero;"/><path d="M12326.9,5600.31c-0,0 -19.728,41.578 -105.808,-7.989l-759.919,-282.48c15.125,47.917 29.286,96.263 42.451,145.02c-18.574,-50.946 -38.321,-101.353 -59.136,-151.221l-603.962,-224.508c22.065,47.33 42.976,95.3 62.703,143.875l985.119,587.445c12.473,7.402 49.387,77.189 -34.008,80.299c-91.642,3.42 -754.482,9.162 -754.482,9.162l272.001,93.502c-0,0 28.495,16.308 27.359,41.22c-0.052,1.117 -0.062,2.299 -0.047,3.511l1164.83,-0.391c-14.872,-186.336 -40.953,-369.523 -77.509,-548.929c-79.674,56.341 -151.197,106.614 -159.596,111.484" style="fill:#cb945e;fill-rule:nonzero;"/><path d="M4666.64,5992.24l258.54,-92.548l-771.743,-10.879c-0,-0 -67.383,-27.985 -14.925,-78.158l943.469,-554.891c18.808,-47.85 38.755,-95.123 59.813,-141.795l-604.854,230.704c-14.686,36.45 -28.814,73.168 -42.308,110.181c9.559,-35.41 19.652,-70.606 30.25,-105.583l-704.017,268.523c-0,0 -93.082,14.305 -119.483,-15.33l-183.235,-143.093c-39.98,189.775 -68.251,383.843 -83.891,581.44l1202.94,-0.401c-1.288,-7.188 -4.164,-36.045 29.444,-48.17" style="fill:#cb945e;fill-rule:nonzero;"/><path d="M11560.3,4319.85c53.698,91.446 103.976,185.138 150.657,280.905l584.33,217.516c-51.203,-138.271 -108.932,-273.384 -172.742,-405.01l-562.245,-93.411Z" style="fill:#cb945e;fill-rule:nonzero;"/><path d="M11432.1,4298.55l-541.951,-90.039c29.702,39.05 58.625,78.725 86.757,118.991l633.817,235.937c-56.131,-90.635 -115.734,-178.99 -178.623,-264.889" style="fill:#cb945e;fill-rule:nonzero;"/><path d="M12389.2,5099.87c-221.717,-16.403 -440.926,-32.969 -486.702,-36.436c0.272,0.792 0.549,1.574 0.821,2.361l522.985,165.716c-11.705,-44.154 -24.12,-88.017 -37.104,-131.641" style="fill:#cb945e;fill-rule:nonzero;"/><path d="M8197.59,4978.28c-0,0 -6.602,32.697 -29.454,37.987l30.141,46.672c-0,-0 8.161,12.85 7.474,41.621l5.456,204.58l70.617,15.449l-0.797,-31.876c0,-0 -1.641,-17.906 22.766,-36.622c0,-0 174.087,-143.246 244.317,-239.586c0,0 0.253,-0.3 0.701,-0.825c-113.019,-35.463 -231.152,-60.275 -353.082,-73.211l1.861,35.811Z" style="fill:#cb945e;fill-rule:nonzero;"/><path d="M8779.35,9396.29l39.213,-237.492l73.234,208.162c11.081,-3.105 22.156,-6.253 33.198,-9.52l113.726,-122.015l-83.92,-172.179c-155.127,60.285 -317.347,106.351 -485.109,136.515l69.977,245.104c80.967,-13.269 160.904,-29.53 239.681,-48.575" style="fill:#cb945e;fill-rule:nonzero;"/><path d="M7551.05,9934.79l14.424,-227.928l-28.409,-4.703c-24.788,-3.664 -49.491,-7.608 -74.079,-11.834l-18.726,62.441c-36.303,56.903 -76.35,6.816 -76.35,6.816l-72.443,-102.851l-0.076,-0.076c-821.383,-188.439 -1519.51,-699.605 -1953.61,-1392.6l-491.558,-0c582.928,902.745 1562.82,1537.44 2700.83,1670.73" style="fill:#cb945e;fill-rule:nonzero;"/><path d="M7002.64,3957.68c109.456,-44.669 222.595,-82.183 338.825,-111.999c25.356,-86.924 48.69,-165.73 51.466,-171.039c6.339,-12.125 16.255,-21.645 39.904,-25.022l161.809,-6.082c0,0 8.691,-63.538 69.448,-110.93c-239.094,24.03 -470.418,73.488 -691.063,145.549c3.444,73.116 11.591,169.07 29.611,279.523" style="fill:#cb945e;fill-rule:nonzero;"/><path d="M5444.27,8264.07c404.69,512.12 968.973,899.239 1620.68,1090.99c-19.045,-34.986 2.91,-54.074 2.91,-54.074l131.774,-182.62c-496.938,-157.837 -930.042,-458.766 -1250.78,-854.294l-504.588,-0Z" style="fill:#cb945e;fill-rule:nonzero;"/><path d="M8349.55,4692.87c0,0 -7.598,54.562 -55.692,39.68c0,-0 -98.386,-41.874 -107.52,29.067l0.048,0.892c162.706,18.33 318.282,60.204 463.197,122.23c54.003,-75.42 118.796,-174.917 165.935,-275.95c0,-0 0.11,-0.239 0.282,-0.625c-150.029,-56.698 -308.003,-98.248 -471.897,-122.664l5.647,207.37Z" style="fill:#cb945e;fill-rule:nonzero;"/><path d="M4090.64,5078.44c1.755,-5.161 3.563,-10.298 5.337,-15.454l-486.793,37.452c-13.694,46.047 -26.734,92.371 -39.012,139.01l520.468,-161.008Z" style="fill:#cb945e;fill-rule:nonzero;"/><path d="M7081.76,5770.73l-106.318,-62.799l-1.946,257.797c29.644,-68.852 65.989,-134.131 108.264,-194.998" style="fill:#cb945e;fill-rule:nonzero;"/><path d="M8925.59,5780.5c0,-0 39.46,58.949 74.585,131.979c19.909,40.252 37.485,81.859 52.505,124.677l-0.081,-323.314l-127.009,66.658Z" style="fill:#cb945e;fill-rule:nonzero;"/><path d="M8853.31,9377.45l-19.207,-57.7l-11.715,65.79c10.322,-2.629 20.644,-5.3 30.922,-8.09" style="fill:#cb945e;fill-rule:nonzero;"/><path d="M8325.58,3780.76l0.058,2.275c242.843,29.968 475.45,92.92 693.209,184.237c13.746,-81.134 26.72,-179.586 31.151,-280.052c0.024,-0.296 0.043,-0.591 0.067,-0.887c-233.151,-78.215 -478.431,-131.15 -732.379,-155.39l7.894,249.817Z" style="fill:#cb945e;fill-rule:nonzero;"/><path d="M7999.15,2571.63c-1020.57,0 -1956.45,354.422 -2686.14,944.218l482.667,3.272c610.955,-467.303 1374.75,-744.975 2203.47,-744.975c833.364,-0 1601.09,280.829 2213.75,752.936l486.277,0c-731.663,-596.545 -1672.97,-955.451 -2700.04,-955.451" style="fill:#cb945e;fill-rule:nonzero;"/><path d="M7999.16,3043.75c-671.827,0 -1302.04,173.82 -1845.98,477.788l601.172,4.068c381.552,-165.301 802.46,-256.971 1244.81,-256.971c443.645,0 865.736,92.214 1248.18,258.445l607.645,0c-546.162,-307.388 -1179.93,-483.33 -1855.83,-483.33" style="fill:#cb945e;fill-rule:nonzero;"/><path d="M8631.75,9672.12c-8.528,1.756 -17.095,3.468 -25.699,5.142l4.898,17.171l20.801,-22.313Z" style="fill:#cb945e;fill-rule:nonzero;"/><path d="M11148.1,8264.07l-491.639,-0c-435.656,695.498 -1137.21,1207.86 -1962.49,1394.63c-95.557,134.76 -126.318,26.777 -126.318,26.777l-86.151,15.66l20.281,226.85c1114.7,-146.876 2072.67,-775.593 2646.32,-1663.91" style="fill:#cb945e;fill-rule:nonzero;"/><path d="M8997.79,9046.07l74.075,150.028c22.594,48.532 -10.36,68.336 -10.36,68.336l-69.334,72.682c626.762,-197.363 1169.33,-576.436 1561.79,-1073.05l-504.594,-0c-277.061,341.691 -637.999,612.815 -1051.58,782.008" style="fill:#cb945e;fill-rule:nonzero;"/><path d="M8865.78,8880.51l-87.387,-179.314l-57.141,-78.658l-10.956,-15.063c11.953,2.113 23.791,4.145 35.463,6.138c275.067,46.658 471.677,58.215 471.677,58.215c-81.487,-33.469 -154.769,-100.656 -215.016,-173.295c-38.254,-46.104 -71.289,-94.398 -97.909,-137.674c-22.99,-37.457 -41.158,-71.17 -53.712,-96.431l-62.604,0.039c-183.335,177.401 -229.879,133.93 -315.229,164.413c-5.862,2.428 -11.757,4.742 -17.696,6.974c6.096,-2.671 11.996,-4.942 17.696,-6.974c90.65,-37.976 164.128,-88.183 223.106,-164.375l-671.631,0.2l-65.231,0l7.25,279.69l5.261,202.586l7.012,269.649l5.819,224.899l6.415,247.255l6.454,247.213l5.819,224.899l7.011,269.573l5.261,202.505l7.57,291.962l1.359,52.477l38.612,-52.877l219.399,-300.687l160.784,-220.277l34.748,-47.621l-19.842,-222.429l-20.324,-228.009l-21.636,-242.709l-22.318,-250.523l-19.641,-220.358l-16.418,-183.937l51.165,179.119l60.724,212.665l69.973,245.104l66.385,232.388l4.904,17.176l20.801,-22.313l124.004,-133.091l23.591,-142.735l39.208,-237.492l73.239,208.162l6.659,18.97l26.534,-28.495l113.726,-122.01l-83.919,-172.184l-89.019,-182.74Zm-958.584,-2838.38l-64.678,-2506.44l432.851,16.237l31.018,1149.26c-0,-0 -182.611,-76.231 -164.762,125.507l12.63,158.06l-85.317,-30.25l94.108,142.001l25.227,945.716l-281.077,-0.091Z" style="fill:#64918e;"/><path d="M7261.64,8264.9c-16.26,56.264 -34.548,98.104 -54.79,140.703c-3.349,7.05 -6.773,14.104 -10.241,21.278c-0,0 -25.661,60.805 -58.497,140.422c-36.34,88.141 -81.486,199.438 -110.415,276.861c-1.159,3.148 -2.313,6.215 -3.391,9.206c0.558,-1.317 1.874,-4.427 3.906,-9.006c14.267,-32.835 64.273,-143.889 137.913,-265.027c30.722,-50.526 65.551,-102.769 103.561,-151.86c48.857,-62.961 103.008,-120.656 160.589,-162.615l-168.635,0.038Zm697.573,-0.2l-432.985,0.119l-127.352,201.351l-103.089,162.978l-159.745,252.511l-69.576,109.982l133.687,-90.135l311.571,-210.036l108.187,-72.925l-60.69,83.404l-179.315,246.334l-134.044,184.256l-148.593,204.142l28.409,35.582l67.106,84.12l32.076,-58.659l79.536,-145.521l-8.528,161.743l-8.963,170.348l60.209,83.757l57.299,79.698l18.85,-64.593l68.098,-233.069l71.366,-244.427l62.402,-213.624l71.409,-244.541l-23.115,250.561l-20.4,221.036l-23.033,249.363l-22.432,243.311l-20.963,227.05l-22.313,241.956l20.281,26.3l168.954,219.042l230.48,298.855l40.443,52.439l0,-2512.71l-65.227,-0Zm-115.385,-2222.59l180.626,0.052l0,-2473.75c0,-0 -377.45,-129.371 -392.661,126.408l-201.437,6.487l-148.02,505.233c-0,-0 308.628,-167.767 402.921,-170.529c37.6,-1.097 25.447,84.845 13.952,96.211c-0,-0 -250.012,241.317 38.439,420.274c0,-0 142.731,107.439 142.731,257.681l126.179,102.202l-121.529,-6.921l-41.201,1136.65Z" style="fill:#64918e;"/><path d="M9333.75,8281.44l-150.105,-13.427l81.606,65.746l166.804,134.326l-138.271,143.613c-91.251,-43.037 -152.261,-101.81 -192.384,-169.074c-27.498,-46.023 -45.189,-96.072 -56.068,-147.715c-2.113,-9.964 -3.945,-20.004 -5.576,-30.044l62.717,-0l251.997,-0.081l250.045,-0.081l-32.038,38.096l-238.727,-21.359Z" style="fill:#64918e;"/><path d="M7150.66,8264.7c-15.502,34.033 -32.716,66.982 -51.724,98.382c-29.925,49.372 -64.353,94.961 -103.962,134.927c-45.823,46.3 -98.624,85.073 -159.229,113.682l-138.27,-143.608l105.435,-85.235l124.92,-100.972l18.054,-14.586l-38.931,3.468l-229.883,20.601l-120.022,10.717l-31.28,-37.218l118.152,-0.038l251.953,-0.038l254.787,-0.082Z" style="fill:#64918e;"/><path d="M8322.38,6042.26l293.288,0.091c18.712,-51.433 35.935,-103.38 50.707,-154.631l427.405,-244.155l-0,398.943l806.372,0.263l-346.824,-691.531l1087.93,691.769l713.886,0.234l-494.291,-172.685l1005.08,-13.78l-1922.09,-1144.08l2347.66,871.694l309.352,-246.549l-1100.66,-341.592l1384.74,106.848l-2750.79,-1050.58l3508.16,525.414l416.376,-312.11l-1813.71,-282.05l2095.52,67.811c-0,0 62.794,-372.599 -100.914,-483.191l-5147.87,-0c-0,-0 63.738,1057.18 -769.325,1736.43l-0,737.43Z" style="fill:#64918e;"/><path d="M4677.2,6041.08l488.09,-170.519l-1005.09,-13.78l1922.1,-1144.08l-2347.67,871.694l-309.348,-246.55l1100.66,-341.591l-1384.74,106.852l2750.79,-1050.58l-3508.16,525.413l-416.372,-312.109l1813.71,-282.051l-2095.52,67.812c-0,-0 -62.789,-372.595 100.919,-483.192l5147.86,0c0,0 -63.738,1057.19 769.326,1736.43l-0,737.229l-293.436,-0.095c-18.665,-51.347 -35.836,-103.141 -50.56,-154.245l-427.409,-244.154l-0,398.242l-805.757,-0.258l346.214,-690.309l-1085.25,690.066l-710.366,-0.229Z" style="fill:#64918e;"/><path d="M6769.64,8138.11c5.705,4.04 11.404,8.085 17.114,12.082c-5.748,-3.997 -11.452,-8.004 -17.152,-12.044l0.038,-0.038Z"/><path d="M12541.9,6095.08l-148.039,209.546l-8779.92,-0l-147.419,-209.546l9075.38,0Z" style="fill:#d59154;"/><path d="M12352.3,7958.68l-97.756,217.912l-8501.14,-0l-90.917,-219.266l8689.81,1.354Z" style="fill:#d59154;"/><rect x="3662.48" y="6401.22" width="324.597" height="1431.56" style="fill:#56938f;"/><rect x="4158.18" y="6401.23" width="324.597" height="1431.56" style="fill:#56938f;"/><rect x="5194.99" y="6403.71" width="324.597" height="1431.57" style="fill:#56938f;"/><path d="M4226.99,6601.58l255.394,-200.359l967.816,1233.66l-255.394,200.359l-967.816,-1233.66Z" style="fill:#56938f;"/><path d="M7368.14,6649.84l-0,392.438l603.895,-0c0,-0 202.238,-7.551 202.238,-218.565c0,-176.339 -214.978,-178.18 -214.978,-178.18l-591.155,4.307Zm-324.597,-246.172l1045.22,-0c-0,-0 414.483,14.581 414.483,368.808c-0,292.596 -236.791,380.947 -236.791,380.947c292.392,153.777 206.245,681.814 206.245,681.814l-324.11,-0c-0,-563.958 -145.635,-553.489 -145.635,-553.489l-634.818,0l-0,553.489l-324.597,-0l-0,-1431.57Z" style="fill:#56938f;"/><rect x="5659.49" y="6403.67" width="1250.43" height="324.597" style="fill:#56938f;"/><rect x="5659.49" y="6948.02" width="1250.43" height="324.597" style="fill:#56938f;"/><rect x="5659.49" y="7516.55" width="1250.43" height="324.597" style="fill:#56938f;"/><g><path d="M5336.91,11540.4c-66.979,-44.496 -104.191,-93.25 -111.634,-146.264c-7.443,-53.013 13.022,-115.928 61.394,-188.744l47.634,-71.703l145.075,96.376l-60.927,91.714c-11.262,16.953 -17.507,31.932 -18.736,44.936c-1.228,13.003 4.551,23.752 17.335,32.245c13.34,8.862 25.166,11.11 35.477,6.744c10.311,-4.366 21.375,-15.443 33.191,-33.23c14.955,-22.512 25.24,-42.818 30.856,-60.919c5.615,-18.101 7.503,-37.676 5.665,-58.726c-1.839,-21.05 -6.393,-47.208 -13.662,-78.475l-24.326,-106.289c-18.36,-79.093 -7.692,-148.515 32.003,-208.269c41.542,-62.532 87.727,-100.549 138.556,-114.05c50.829,-13.501 103.758,-1.973 158.786,34.583c67.257,44.68 103.082,94.316 107.474,148.908c4.392,54.591 -17.691,118.434 -66.248,191.527l-149.244,-99.145l33.51,-50.443c6.647,-10.005 8.968,-19.679 6.963,-29.023c-2.005,-9.343 -7.871,-17.246 -17.598,-23.708c-11.673,-7.754 -22.389,-10.166 -32.147,-7.235c-9.758,2.931 -18.053,9.538 -24.884,19.821c-6.831,10.283 -11.437,23.247 -13.818,38.89c-2.38,15.643 -0.542,36.693 5.517,63.15l30.623,137.511c6.245,27.382 10.5,54.744 12.766,82.086c2.265,27.342 -0.187,55.756 -7.357,85.242c-7.171,29.485 -22.11,61.32 -44.82,95.505c-45.787,68.925 -94.366,114.464 -145.736,136.619c-51.371,22.154 -108.6,12.276 -171.688,-29.634Z" style="fill:#56938e;fill-rule:nonzero;"/><path d="M5858.57,11831.4l302.999,-643.972l-94.649,-44.534l72.021,-153.068l348.705,164.072l-72.02,153.068l-94.649,-44.534l-302.999,643.972l-159.408,-75.004Z" style="fill:#56938e;fill-rule:nonzero;"/><path d="M6362.88,12050.4l338.294,-817.746l285.801,87.145l-176.963,866.939l-159.416,-48.608l29.487,-139.609l-101.49,-30.946l-51.988,132.748l-163.725,-49.923Zm268.699,-213.698l76.597,23.356l93.782,-439.702l-7.659,-2.336l-162.72,418.682Z" style="fill:#56938e;fill-rule:nonzero;"/><path d="M7197.78,12263.5l43.49,-286.501l-50.338,-605.489l172.693,26.214l3.725,302.274l93.259,-287.552l172.198,26.139l-227.257,563.351l-43.49,286.501l-164.28,-24.937Z" style="fill:#56938e;fill-rule:nonzero;"/><path d="M8290.6,12325.1l-63.236,-878.587l169.727,-12.216l63.236,878.587l-169.727,12.216Z" style="fill:#56938e;fill-rule:nonzero;"/><path d="M8785.97,12276.9l-173.608,-863.581l177.623,-35.708l162.643,397.656l-83.154,-413.636l166.829,-33.538l173.607,863.582l-168.791,33.932l-173.162,-414.43l86.804,431.791l-168.791,33.932Z" style="fill:#56938e;fill-rule:nonzero;"/><path d="M9532.77,12100.5l-303.272,-827.006l227.427,-83.4c59.519,-21.826 110.375,-21.729 152.567,0.292c42.193,22.02 74.949,64.827 98.269,128.418l141.986,387.19c28.719,78.315 37.185,143.8 25.398,196.455c-11.787,52.655 -51.983,91.561 -120.587,116.719l-221.788,81.332Zm112.752,-207.135l28.663,-10.511c30.386,-11.143 40.18,-31.438 29.382,-60.884l-156.461,-426.66c-10.109,-27.567 -20.309,-43.995 -30.6,-49.283c-10.291,-5.289 -26.714,-3.797 -49.269,4.474l-18.325,6.72l196.61,536.144Z" style="fill:#56938e;fill-rule:nonzero;"/><path d="M10231.2,11814.8l-401.652,-783.957l151.447,-77.592l401.651,783.957l-151.446,77.592Z" style="fill:#56938e;fill-rule:nonzero;"/><path d="M10668.6,11575.6l-490.58,-731.604l292.641,-196.232l94.771,141.332l-143.826,96.444l95.607,142.58l138.007,-92.542l92.263,137.592l-138.007,92.541l112.331,167.521l153.388,-102.855l95.607,142.579l-302.202,202.644Z" style="fill:#56938e;fill-rule:nonzero;"/></g><rect x="9128.04" y="6409.59" width="324.597" height="1431.56" style="fill:#56938f;"/><path d="M10006.1,6728.27l0,-324.597l-1645.9,-0c142.52,55.773 239.943,192.937 241.97,324.597l1403.93,-0Z" style="fill:#56938f;"/><rect x="10135.3" y="6409.59" width="324.597" height="1431.56" style="fill:#56938f;"/><path d="M11540.3,6397.83l-353.354,0l-620.871,1443.32l353.354,-0l620.871,-1443.32Z" style="fill:#56938f;"/><path d="M11642.3,6397.83l-357.418,0l655.313,1421.73l294.791,-135.881l-592.686,-1285.85Z" style="fill:#56938f;"/><path d="M11459.8,7516.56l-140.016,324.597l986.111,-0l-147.276,-324.597l-698.819,0Z" style="fill:#56938f;"/></g><g id="Inertia-Logo_Alternate-1" serif:id="Inertia Logo_Alternate 1"></g><g id="Inertia-Logo_Alternate-2" serif:id="Inertia Logo_Alternate 2"></g><g id="Inertia-Logo_Emblem" serif:id="Inertia Logo_Emblem"></g><g id="Inertia-Logo_Simplified-Alternate" serif:id="Inertia Logo_Simplified-Alternate"></g><g id="Inertia-Logo_Linear" serif:id="Inertia Logo_Linear"></g><g id="Inertia-Logo_Simplified" serif:id="Inertia Logo_Simplified"></g></svg>