<svg width="451" height="100" viewBox="0 0 451 100" fill="none" xmlns="http://www.w3.org/2000/svg">
<path d="M17.0649 0.000244141H0V74.943H17.0649V0.000244141Z" fill="white"/>
<path d="M44.8484 0.000244141H27.139V74.943H44.8484V0.000244141Z" fill="white"/>
<path d="M101.866 0.000244141H84.3779V74.943H101.866V0.000244141Z" fill="white"/>
<path fill-rule="evenodd" clip-rule="evenodd" d="M44.9026 0.000244141L32.9426 9.38288L84.3749 74.9432L96.3349 65.5605L44.9026 0.000244141Z" fill="white"/>
<path fill-rule="evenodd" clip-rule="evenodd" d="M111.27 0.000244141V12.9349H175.777V0.000244141H111.27Z" fill="white"/>
<path fill-rule="evenodd" clip-rule="evenodd" d="M111.27 29.53V42.2891H172.422V29.53H111.27Z" fill="white"/>
<path fill-rule="evenodd" clip-rule="evenodd" d="M111.27 60.8714V73.5248H176.375V60.8714H111.27Z" fill="white"/>
<path fill-rule="evenodd" clip-rule="evenodd" d="M186.811 0.000263254H240.077C240.077 0.000263254 261.199 0.743256 261.199 18.7951C261.199 33.7061 249.132 38.2084 249.132 38.2084C264.033 46.0451 259.643 72.954 259.643 72.954H243.126C243.126 44.2145 235.704 44.748 235.704 44.748H203.353V72.954H186.811V0V0.000263254ZM203.353 12.5455V32.5445H234.128C234.128 32.5445 244.434 32.1597 244.434 21.4061C244.434 12.4198 233.479 12.326 233.479 12.326L203.353 12.5455Z" fill="white"/>
<path d="M309.581 0.301941H293.039V73.256H309.581V0.301941Z" fill="white"/>
<path fill-rule="evenodd" clip-rule="evenodd" d="M337.787 16.5421V0.000335693H253.91C261.173 2.84264 266.138 9.83241 266.241 16.5421H337.786H337.787Z" fill="white"/>
<path fill-rule="evenodd" clip-rule="evenodd" d="M410.301 0.000244141H402.626L400.484 15.5652L431.817 99.0779L449.987 99.365L410.301 0.000511445V0.000244141Z" fill="white"/>
<path d="M363.091 0.000244141H346.294V73.2556H363.091V0.000244141Z" fill="white"/>
<path fill-rule="evenodd" clip-rule="evenodd" d="M413.891 11.0598L402.604 0.000244141L372.711 73.2556H389.485L413.891 11.0598Z" fill="white"/>
<path fill-rule="evenodd" clip-rule="evenodd" d="M0.491699 85.1053L0.596142 100H449.731L441.081 85.1053H0.491829H0.491699Z" fill="white"/>
<path fill-rule="evenodd" clip-rule="evenodd" d="M424.071 78.4326L431.876 99.9995H450.42L442.147 79.7715L424.071 78.4326Z" fill="white"/>
</svg>
