<svg width="599" height="100" viewBox="0 0 599 100" fill="none" xmlns="http://www.w3.org/2000/svg">
<path d="M22.4896 0.235474H0.000240326V99.4206H22.4896V0.235474Z" fill="white"/>
<path d="M56.8341 0.269692L106.179 63.1686V0.407778H128.668V99.5929H106.179V99.5806L106.167 99.5898L56.8341 36.7057V99.4206H34.3447V0.235474H56.8341V0.269692Z" fill="white"/>
<path fill-rule="evenodd" clip-rule="evenodd" d="M234.254 0.405231H306.671C306.671 0.405231 335.388 1.41535 335.388 25.9579C335.388 46.2302 318.983 52.3514 318.983 52.3514C339.241 63.0059 333.272 99.59 333.272 99.59H310.816C310.816 60.517 300.726 61.2423 300.726 61.2423H256.743V99.59H234.254V0.404877V0.405231ZM256.743 17.4613V44.6509H298.584C298.584 44.6509 312.596 44.1278 312.596 29.5077C312.596 17.2903 297.701 17.1629 297.701 17.1629L256.743 17.4613Z" fill="white"/>
<path fill-rule="evenodd" clip-rule="evenodd" d="M138.362 0.404877V22.8943H224.997V0.404877H138.362Z" fill="white"/>
<path fill-rule="evenodd" clip-rule="evenodd" d="M138.362 38.1196V60.6091H224.997V38.1196H138.362Z" fill="white"/>
<path fill-rule="evenodd" clip-rule="evenodd" d="M138.362 77.5105V99.9999H224.997V77.5105H138.362Z" fill="white"/>
<path d="M439.514 0.404877V22.8943H401.166V100H378.676V22.8943H342.244C342.103 13.7722 335.354 4.26917 325.479 0.404877H439.514Z" fill="white"/>
<path d="M470.956 0.814941H448.467V100H470.956V0.814941Z" fill="white"/>
<path d="M588.599 77.5106H588.644L591.512 83.8312L593.936 89.0893L593.904 89.1037L598.848 100H530.527L540.228 77.5106H563.835L537.264 19.8631L502.792 99.9999H478.31L521.326 0.00040755H552.872V6.10352e-05L588.599 77.5106Z" fill="white"/>
</svg>
